HIERARCHY
ROOT Hips
{
 OFFSET 0.000000 0.000000 0.000000
 CHANNELS 6 Xposition Yposition Zposition Yrotation Xrotation Zrotation
 JOINT Chest
 {
  OFFSET 0.000000 9.857222 0.000240
  CHANNELS 3 Yrotation Xrotation Zrotation
  JOINT Chest2
  {
   OFFSET 0.000000 10.876940 -0.000436
   CHANNELS 3 Yrotation Xrotation Zrotation
   JOINT Chest3
   {
    OFFSET 0.000000 9.827798 0.000000
    CHANNELS 3 Yrotation Xrotation Zrotation
    JOINT Chest4
    {
     OFFSET 0.000000 9.827798 0.000000
     CHANNELS 3 Yrotation Xrotation Zrotation
     JOINT Neck
     {
      OFFSET 0.000000 13.831992 0.000000
      CHANNELS 3 Yrotation Xrotation Zrotation
      JOINT Head
      {
       OFFSET 0.000000 9.147643 -0.001036
       CHANNELS 3 Yrotation Xrotation Zrotation
       End Site
       {
        OFFSET 0.000000 17.515799 -0.000541
       }
      }
     }
     JOINT RightCollar
     {
      OFFSET -3.001579 7.717577 0.000000
      CHANNELS 3 Yrotation Xrotation Zrotation
      JOINT RightShoulder
      {
       OFFSET -14.002642 0.000000 0.000000
       CHANNELS 3 Yrotation Xrotation Zrotation
       JOINT RightElbow
       {
        OFFSET -30.053852 0.000000 0.000000
        CHANNELS 3 Yrotation Xrotation Zrotation
        JOINT RightWrist
        {
         OFFSET -24.564923 0.000000 -0.000000
         CHANNELS 3 Yrotation Xrotation Zrotation
         End Site
         {
          OFFSET -18.334355 0.000000 0.000000
         }
        }
       }
      }
     }
     JOINT LeftCollar
     {
      OFFSET 3.001579 7.717577 0.000000
      CHANNELS 3 Yrotation Xrotation Zrotation
      JOINT LeftShoulder
      {
       OFFSET 14.002642 0.000000 0.000000
       CHANNELS 3 Yrotation Xrotation Zrotation
       JOINT LeftElbow
       {
        OFFSET 30.053852 0.000000 0.000000
        CHANNELS 3 Yrotation Xrotation Zrotation
        JOINT LeftWrist
        {
         OFFSET 24.564923 0.000000 -0.000000
         CHANNELS 3 Yrotation Xrotation Zrotation
         End Site
         {
          OFFSET 18.334355 0.000000 0.000000
         }
        }
       }
      }
     }
    }
   }
  }
 }
 JOINT RightHip
 {
  OFFSET -8.003235 -0.001175 -0.000120
  CHANNELS 3 Yrotation Xrotation Zrotation
  JOINT RightKnee
  {
   OFFSET 0.000000 -41.759727 0.000113
   CHANNELS 3 Yrotation Xrotation Zrotation
   JOINT RightAnkle
   {
    OFFSET 0.000000 -40.728748 0.000159
    CHANNELS 3 Yrotation Xrotation Zrotation
    JOINT RightToe
    {
     OFFSET 0.000000 -6.515296 14.732841
     CHANNELS 3 Yrotation Xrotation Zrotation
     End Site
     {
      OFFSET 0.000000 -1.502839 6.412115
     }
    }
   }
  }
 }
 JOINT LeftHip
 {
  OFFSET 8.003235 -0.001175 -0.000120
  CHANNELS 3 Yrotation Xrotation Zrotation
  JOINT LeftKnee
  {
   OFFSET 0.000000 -41.759727 0.000113
   CHANNELS 3 Yrotation Xrotation Zrotation
   JOINT LeftAnkle
   {
    OFFSET 0.000000 -40.728748 0.000159
    CHANNELS 3 Yrotation Xrotation Zrotation
    JOINT LeftToe
    {
     OFFSET 0.000000 -6.515296 14.732841
     CHANNELS 3 Yrotation Xrotation Zrotation
     End Site
     {
      OFFSET 0.000000 -1.502839 6.412115
     }
    }
   }
  }
 }
}
MOTION
Frames: 10
Frame Time: 0.016667
0.000000 88.822259 0.000000 0.000000 -5.826342 0.000000 0.000000 11.116423 0.000000 0.000000 -5.290081 0.000000 0.000000 0.000000 0.000000 0.000000 0.000000 0.000000 0.000000 12.665069 0.000000 0.000000 0.575450 0.000000 0.000000 0.000000 0.000000 0.000000 0.000000 0.000000 2.337306 0.000000 0.000000 -2.337306 0.000000 0.000000 0.000000 0.000000 0.000000 0.000000 0.000000 0.000000 -2.337306 0.000000 0.000000 2.337306 0.000000 0.000000 0.000000 8.578828 0.000000 0.000000 1.905768 0.000000 0.000000 -4.658254 0.000000 0.000000 0.000000 0.000000 0.000000 8.578828 0.000000 0.000000 1.905768 0.000000 0.000000 -4.658254 0.000000 0.000000 0.000000 0.000000
2.860331 90.524615 12.641760 -33.736280 -10.317741 0.710047 3.567834 -1.301902 -0.415707 1.565432 -0.604580 -0.140057 1.565432 -0.604580 -0.140057 1.173924 -0.453797 -0.103494 1.428210 28.130405 0.837442 2.369431 16.052363 1.200284 4.650288 22.612589 14.521264 33.600700 -5.138980 77.202129 21.422238 2.569455 0.972076 -0.505003 -2.690881 -12.732609 -25.103044 26.567962 -21.519458 -40.461576 17.872156 -74.185319 -44.393698 -24.751093 7.172880 4.259694 2.804056 8.210723 -1.902553 11.104123 -1.120378 2.845912 4.589353 -1.311061 -0.372072 -4.857198 1.454885 0.040624 0.007865 -0.006227 -34.248183 18.626494 -4.719436 34.889467 0.706404 -9.353212 11.460441 -7.938136 0.429054 -0.193250 0.091410 -0.061413
2.883147 90.527785 12.607289 -33.708747 -10.282795 0.694091 3.538246 -1.286703 -0.445468 1.561789 -0.585166 -0.146627 1.561789 -0.585166 -0.146627 1.171192 -0.439252 -0.108475 1.283788 28.057139 0.855221 2.108664 15.915977 1.260019 4.632987 22.603010 14.502807 33.715606 -5.189277 77.206140 21.568734 2.595891 0.890270 -0.579155 -2.649191 -12.718594 -25.101247 26.556511 -21.494535 -40.596174 17.867831 -74.263270 -44.565398 -24.775286 7.412050 4.306418 2.829903 8.256244 -1.996988 11.035076 -1.132452 2.865201 4.601001 -1.283712 -0.340427 -4.837649 1.434684 0.046582 0.009655 0.001684 -34.486636 18.524522 -4.718409 35.070326 0.774825 -9.358254 11.522594 -7.943875 0.429553 -0.207169 0.081659 -0.066023
2.912620 90.530958 12.558323 -33.688860 -10.246682 0.686757 3.504685 -1.283065 -0.482338 1.562044 -0.566525 -0.152640 1.562044 -0.566525 -0.152640 1.171382 -0.425287 -0.113032 1.141236 27.993253 0.869212 1.851968 15.797309 1.313032 4.609648 22.591142 14.483847 33.824846 -5.226887 77.220658 21.775428 2.622244 0.833914 -0.645167 -2.625041 -12.712038 -25.113334 26.549659 -21.480988 -40.696284 17.828321 -74.360867 -44.764862 -24.830920 7.817967 4.400339 2.871433 8.381748 -2.113492 10.956221 -1.150805 2.910831 4.606791 -1.263750 -0.315589 -4.812311 1.418749 0.051775 0.016808 0.006710 -34.823801 18.396921 -4.751342 35.343935 0.844099 -9.346618 11.561102 -7.933846 0.428605 -0.235501 0.068377 -0.075535
2.944729 90.533897 12.506232 -33.711144 -10.231566 0.682878 3.502079 -1.260920 -0.512943 1.562652 -0.554155 -0.159262 1.562652 -0.554155 -0.159262 1.171836 -0.416026 -0.118029 1.010947 27.941218 0.885006 1.616724 15.700851 1.367106 4.598382 22.576095 14.476122 33.933349 -5.229289 77.231858 22.038128 2.615797 0.814040 -0.690620 -2.599426 -12.711896 -25.123274 26.544202 -21.475095 -40.737889 17.777227 -74.467202 -44.961184 -24.883990 8.328425 4.555262 2.925120 8.573417 -2.169239 10.886700 -1.169137 2.941543 4.624158 -1.232157 -0.294583 -4.789837 1.401698 0.054591 0.024664 0.009015 -35.012635 18.303788 -4.791237 35.532776 0.885547 -9.300734 11.596643 -7.930290 0.417732 -0.260340 0.069610 -0.086113
2.976407 90.534059 12.467517 -33.774189 -10.234325 0.690645 3.538528 -1.212931 -0.545111 1.564228 -0.551429 -0.166592 1.564228 -0.551429 -0.166592 1.173011 -0.414001 -0.123533 0.894602 27.900322 0.904210 1.405608 15.625228 1.424659 4.583140 22.567646 14.478656 34.024714 -5.229288 77.230923 22.329568 2.644500 0.832664 -0.717210 -2.577531 -12.699043 -25.129533 26.528198 -21.475112 -40.686622 17.715037 -74.570052 -45.120871 -24.858658 8.860589 4.787856 2.976531 8.856881 -2.253595 10.841761 -1.216806 3.015617 4.634845 -1.192607 -0.251463 -4.782918 1.390464 0.055850 0.042843 0.007465 -34.894458 18.282324 -4.779767 35.501144 0.893937 -9.258181 11.581241 -7.935717 0.423163 -0.309422 0.078040 -0.112835
2.993629 90.530240 12.436870 -33.855253 -10.254538 0.671434 3.585822 -1.159852 -0.548558 1.566859 -0.549917 -0.172997 1.566859 -0.549917 -0.172997 1.174980 -0.412885 -0.128338 0.796653 27.869737 0.926343 1.226648 15.568839 1.483846 4.560862 22.557489 14.483145 34.072101 -5.238172 77.223947 22.634760 2.754129 0.927816 -0.728791 -2.567089 -12.701824 -25.128173 26.507493 -21.474524 -40.550781 17.635655 -74.646481 -45.172583 -24.790870 9.399460 5.038601 3.018402 9.162058 -2.313492 10.822271 -1.214501 3.099322 4.649970 -1.180965 -0.220284 -4.781420 1.389897 0.055671 0.054167 0.004777 -34.609653 18.338644 -4.718475 35.420644 0.870730 -9.240870 11.486009 -7.944950 0.424202 -0.302431 0.099025 -0.117616
3.014731 90.525052 12.419957 -33.930896 -10.277549 0.672196 3.623951 -1.115960 -0.567663 1.569762 -0.547013 -0.177715 1.569762 -0.547013 -0.177715 1.177153 -0.410719 -0.131881 0.722756 27.847838 0.950388 1.090113 15.528575 1.541625 4.538143 22.542754 14.487123 34.089153 -5.247198 77.211206 22.940238 2.915728 1.057217 -0.730183 -2.546883 -12.704585 -25.126211 26.487049 -21.485446 -40.387905 17.545624 -74.701833 -45.188663 -24.788934 9.989755 5.243475 3.075002 9.392315 -2.381255 10.810942 -1.236474 3.188757 4.668383 -1.177398 -0.197640 -4.797884 1.400499 0.058257 0.071599 0.003243 -34.396458 18.387028 -4.710498 35.424208 0.834231 -9.212900 11.310512 -7.943272 0.452515 -0.333865 0.113597 -0.140894
3.034368 90.519224 12.402000 -34.003457 -10.286873 0.663964 3.655436 -1.092271 -0.574918 1.572911 -0.546624 -0.181230 1.572911 -0.546624 -0.181230 1.179512 -0.410438 -0.134516 0.671920 27.833111 0.973696 0.994785 15.501566 1.593434 4.518128 22.527662 14.491711 34.076069 -5.268949 77.197511 23.222279 3.131476 1.190614 -0.719196 -2.525875 -12.697116 -25.125845 26.466938 -21.507138 -40.310335 17.481708 -74.779788 -45.342355 -24.883543 10.576528 5.502177 3.132383 9.631724 -2.377613 10.769520 -1.234546 3.228338 4.722934 -1.170156 -0.188472 -4.826173 1.407410 0.060203 0.081735 0.003049 -34.282142 18.409576 -4.706029 35.447128 0.812761 -9.194782 11.190975 -7.950958 0.477556 -0.342631 0.126665 -0.153318
3.053946 90.515125 12.385790 -34.092668 -10.323598 0.669375 3.703902 -1.048691 -0.588716 1.576199 -0.547548 -0.184704 1.576199 -0.547548 -0.184704 1.181975 -0.411141 -0.137116 0.644540 27.824562 0.999517 0.940704 15.485904 1.644937 4.500674 22.517053 14.501176 34.044405 -5.310103 77.192427 23.462365 3.380643 1.329129 -0.701351 -2.499716 -12.700142 -25.130971 26.447976 -21.529164 -40.355856 17.447460 -74.881177 -45.508865 -25.120548 11.098964 5.717280 3.152634 9.868239 -2.324217 10.760613 -1.232686 3.242400 4.769692 -1.173870 -0.184256 -4.857187 1.413667 0.063550 0.097593 0.008430 -34.268280 18.429464 -4.753715 35.467247 0.791615 -9.191456 11.321344 -7.954276 0.512798 -0.391948 0.128783 -0.181927
